<svg width="2453" height="572" viewBox="0 0 2453 572" class="keymap" xmlns="http://www.w3.org/2000/svg" xmlns:xlink="http://www.w3.org/1999/xlink">
<defs>/* start glyphs */
<svg id="mdi:apple-keyboard-command">
<svg xmlns="http://www.w3.org/2000/svg" id="mdi-apple-keyboard-command" viewBox="0 0 24 24"><path d="M6,2A4,4 0 0,1 10,6V8H14V6A4,4 0 0,1 18,2A4,4 0 0,1 22,6A4,4 0 0,1 18,10H16V14H18A4,4 0 0,1 22,18A4,4 0 0,1 18,22A4,4 0 0,1 14,18V16H10V18A4,4 0 0,1 6,22A4,4 0 0,1 2,18A4,4 0 0,1 6,14H8V10H6A4,4 0 0,1 2,6A4,4 0 0,1 6,2M16,18A2,2 0 0,0 18,20A2,2 0 0,0 20,18A2,2 0 0,0 18,16H16V18M14,10H10V14H14V10M6,16A2,2 0 0,0 4,18A2,2 0 0,0 6,20A2,2 0 0,0 8,18V16H6M8,6A2,2 0 0,0 6,4A2,2 0 0,0 4,6A2,2 0 0,0 6,8H8V6M18,8A2,2 0 0,0 20,6A2,2 0 0,0 18,4A2,2 0 0,0 16,6V8H18Z" /></svg>
</svg>
<svg id="mdi:apple-keyboard-control">
<svg xmlns="http://www.w3.org/2000/svg" id="mdi-apple-keyboard-control" viewBox="0 0 24 24"><path d="M19.78,11.78L18.36,13.19L12,6.83L5.64,13.19L4.22,11.78L12,4L19.78,11.78Z" /></svg>
</svg>
<svg id="mdi:apple-keyboard-option">
<svg xmlns="http://www.w3.org/2000/svg" id="mdi-apple-keyboard-option" viewBox="0 0 24 24"><path d="M3,4H9.11L16.15,18H21V20H14.88L7.84,6H3V4M14,4H21V6H14V4Z" /></svg>
</svg>
<svg id="mdi:apple-keyboard-shift">
<svg xmlns="http://www.w3.org/2000/svg" id="mdi-apple-keyboard-shift" viewBox="0 0 24 24"><path d="M15,18V12H17.17L12,6.83L6.83,12H9V18H15M12,4L22,14H17V20H7V14H2L12,4Z" /></svg>
</svg>
<svg id="mdi:backspace">
<svg xmlns="http://www.w3.org/2000/svg" id="mdi-backspace" viewBox="0 0 24 24"><path d="M22,3H7C6.31,3 5.77,3.35 5.41,3.88L0,12L5.41,20.11C5.77,20.64 6.31,21 7,21H22A2,2 0 0,0 24,19V5A2,2 0 0,0 22,3M19,15.59L17.59,17L14,13.41L10.41,17L9,15.59L12.59,12L9,8.41L10.41,7L14,10.59L17.59,7L19,8.41L15.41,12" /></svg>
</svg>
<svg id="mdi:keyboard-space">
<svg xmlns="http://www.w3.org/2000/svg" id="mdi-keyboard-space" viewBox="0 0 24 24"><path d="M3 15H5V19H19V15H21V19C21 20.1 20.1 21 19 21H5C3.9 21 3 20.1 3 19V15Z" /></svg>
</svg>
<svg id="mdi:minus-circle-outline">
<svg xmlns="http://www.w3.org/2000/svg" id="mdi-minus-circle-outline" viewBox="0 0 24 24"><path d="M12,20C7.59,20 4,16.41 4,12C4,7.59 7.59,4 12,4C16.41,4 20,7.59 20,12C20,16.41 16.41,20 12,20M12,2A10,10 0 0,0 2,12A10,10 0 0,0 12,22A10,10 0 0,0 22,12A10,10 0 0,0 12,2M7,13H17V11H7" /></svg>
</svg>
</defs>/* end glyphs */
<style>/* inherit to force styles through use tags */
svg path {
    fill: inherit;
}

/* font and background color specifications */
svg.keymap {
    font-family: SFMono-Regular,Consolas,Liberation Mono,Menlo,monospace;
    font-size: 14px;
    font-kerning: normal;
    text-rendering: optimizeLegibility;
    fill: #24292e;
}

/* default key styling */
rect.key {
    fill: #f6f8fa;
}

rect.key, rect.combo {
    stroke: #c9cccf;
    stroke-width: 1;
}

/* default key side styling, only used is draw_key_sides is set */
rect.side {
    filter: brightness(90%);
}

/* color accent for combo boxes */
rect.combo, rect.combo-separate {
    fill: #cdf;
}

/* color accent for held keys */
rect.held, rect.combo.held {
    fill: #fdd;
}

/* color accent for ghost (optional) keys */
rect.ghost, rect.combo.ghost {
    stroke-dasharray: 4, 4;
    stroke-width: 2;
}

text {
    text-anchor: middle;
    dominant-baseline: middle;
}

/* styling for layer labels */
text.label {
    font-weight: bold;
    text-anchor: start;
    stroke: white;
    stroke-width: 4;
    paint-order: stroke;
}

/* styling for optional footer */
text.footer {
    text-anchor: end;
    dominant-baseline: auto;
    stroke: white;
    stroke-width: 4;
    paint-order: stroke;
}

/* styling for combo tap, and key non-tap label text */
text.combo, text.hold, text.shifted, text.left, text.right, text.tl, text.tr, text.bl, text.br {
    font-size: 11px;
}

text.hold, text.bl, text.br {
    text-anchor: middle;
    dominant-baseline: auto;
}

text.shifted, text.tl, text.tr {
    text-anchor: middle;
    dominant-baseline: hanging;
}

text.left, text.tl, text.bl {
    text-anchor: start;
}

text.right, text.tr, text.br {
    text-anchor: end;
}

text.layer-activator {
    text-decoration: underline;
}

/* styling for hold/shifted label text in combo box */
text.combo.hold, text.combo.shifted, text.combo.left, text.combo.right {
    font-size: 8px;
}

/* lighter symbol for transparent keys */
text.trans {
    fill: #7b7e81;
}

/* styling for combo dendrons */
path.combo {
    stroke-width: 1;
    stroke: gray;
    fill: none;
}

/* Start Tabler Icons Cleanup */
/* cannot use height/width with glyphs */
.icon-tabler > path {
    fill: inherit;
    stroke: inherit;
    stroke-width: 2;
}
/* hide tabler's default box */
.icon-tabler > path[stroke="none"][fill="none"] {
    visibility: hidden;
}
/* End Tabler Icons Cleanup */

svg.keymap {
  font-size: 20px;
  font-weight: 600;
}

text {
  text-anchor: middle;
  dominant-baseline: middle;
  line-height: 1;
}

/* Layer labels */
text.label {
  font-size: 36px;
  text-anchor: start;
  paint-order: stroke;
}

text.layer-activator {
  text-decoration: underline;
}

/* Keys */
.shifted,
.hold {
  font-size: 16px;
  text-anchor: middle;
}

/*
 * Combos
 */
rect.combo {
  opacity: 0.8;
}
.combo.tap {
  font-size: 16px;
}
.combo.shifted {
  font-size: 10px;
}
.combo.hold {
  font-size: 16px;
}

/*
 * Transparent, None, and Ghost Keys
 */
.trans,
.none,
.ghost {
  opacity: 0.6;
}
</style>
<g transform="translate(30, 0)" class="layer-base">
<text x="0" y="28" class="label" id="base">base</text>
<g transform="translate(0, 56)">
<g transform="translate(73, 70) rotate(-17.0)" class="key keypos-0">
<rect rx="4" ry="4" x="-38" y="-38" width="77" height="77" class="key"/>
<text x="0" y="0" class="key tap">Q</text>
</g>
<g transform="translate(164, 47) rotate(-10.0)" class="key keypos-1">
<rect rx="4" ry="4" x="-38" y="-38" width="77" height="77" class="key"/>
<text x="0" y="0" class="key tap">W</text>
</g>
<g transform="translate(250, 41) rotate(-1.5)" class="key keypos-2">
<rect rx="4" ry="4" x="-38" y="-38" width="77" height="77" class="key"/>
<text x="0" y="0" class="key tap">E</text>
</g>
<g transform="translate(340, 59) rotate(7.0)" class="key keypos-3">
<rect rx="4" ry="4" x="-38" y="-38" width="77" height="77" class="key"/>
<text x="0" y="0" class="key tap">R</text>
</g>
<g transform="translate(426, 95) rotate(17.0)" class="key keypos-4">
<rect rx="4" ry="4" x="-38" y="-38" width="77" height="77" class="key"/>
<text x="0" y="0" class="key tap">T</text>
</g>
<g transform="translate(740, 95) rotate(-17.0)" class="key keypos-5">
<rect rx="4" ry="4" x="-38" y="-38" width="77" height="77" class="key"/>
<text x="0" y="0" class="key tap">Y</text>
</g>
<g transform="translate(826, 59) rotate(-7.0)" class="key keypos-6">
<rect rx="4" ry="4" x="-38" y="-38" width="77" height="77" class="key"/>
<text x="0" y="0" class="key tap">U</text>
</g>
<g transform="translate(916, 41) rotate(1.5)" class="key keypos-7">
<rect rx="4" ry="4" x="-38" y="-38" width="77" height="77" class="key"/>
<text x="0" y="0" class="key tap">I</text>
</g>
<g transform="translate(1002, 47) rotate(10.0)" class="key keypos-8">
<rect rx="4" ry="4" x="-38" y="-38" width="77" height="77" class="key"/>
<text x="0" y="0" class="key tap">O</text>
</g>
<g transform="translate(1094, 70) rotate(17.0)" class="key keypos-9">
<rect rx="4" ry="4" x="-38" y="-38" width="77" height="77" class="key"/>
<text x="0" y="0" class="key tap">P</text>
</g>
<g transform="translate(62, 175) rotate(-17.5)" class="key keypos-10">
<rect rx="4" ry="4" x="-38" y="-38" width="77" height="77" class="key"/>
<text x="0" y="0" class="key tap">A</text>
<use href="#mdi:apple-keyboard-command" xlink:href="#mdi:apple-keyboard-command" x="-8" y="18" height="16" width="16.0" class="key hold glyph mdi:apple-keyboard-command"/>
</g>
<g transform="translate(150, 137) rotate(-10.5)" class="key keypos-11">
<rect rx="4" ry="4" x="-38" y="-38" width="77" height="77" class="key"/>
<text x="0" y="0" class="key tap">S</text>
<use href="#mdi:apple-keyboard-option" xlink:href="#mdi:apple-keyboard-option" x="-8" y="18" height="16" width="16.0" class="key hold glyph mdi:apple-keyboard-option"/>
</g>
<g transform="translate(241, 127) rotate(-2.0)" class="key keypos-12">
<rect rx="4" ry="4" x="-38" y="-38" width="77" height="77" class="key"/>
<text x="0" y="0" class="key tap">D</text>
<use href="#mdi:apple-keyboard-control" xlink:href="#mdi:apple-keyboard-control" x="-8" y="18" height="16" width="16.0" class="key hold glyph mdi:apple-keyboard-control"/>
</g>
<g transform="translate(332, 145) rotate(7.5)" class="key keypos-13">
<rect rx="4" ry="4" x="-38" y="-38" width="77" height="77" class="key"/>
<text x="0" y="0" class="key tap">F</text>
<use href="#mdi:apple-keyboard-shift" xlink:href="#mdi:apple-keyboard-shift" x="-8" y="18" height="16" width="16.0" class="key hold glyph mdi:apple-keyboard-shift"/>
</g>
<g transform="translate(422, 182) rotate(17.5)" class="key keypos-14">
<rect rx="4" ry="4" x="-38" y="-38" width="77" height="77" class="key"/>
<text x="0" y="0" class="key tap">G</text>
</g>
<g transform="translate(745, 182) rotate(-17.5)" class="key keypos-15">
<rect rx="4" ry="4" x="-38" y="-38" width="77" height="77" class="key"/>
<text x="0" y="0" class="key tap">H</text>
</g>
<g transform="translate(834, 145) rotate(-7.5)" class="key keypos-16">
<rect rx="4" ry="4" x="-38" y="-38" width="77" height="77" class="key"/>
<text x="0" y="0" class="key tap">J</text>
<use href="#mdi:apple-keyboard-shift" xlink:href="#mdi:apple-keyboard-shift" x="-8" y="18" height="16" width="16.0" class="key hold glyph mdi:apple-keyboard-shift"/>
</g>
<g transform="translate(926, 127) rotate(2.0)" class="key keypos-17">
<rect rx="4" ry="4" x="-38" y="-38" width="77" height="77" class="key"/>
<text x="0" y="0" class="key tap">K</text>
<use href="#mdi:apple-keyboard-control" xlink:href="#mdi:apple-keyboard-control" x="-8" y="18" height="16" width="16.0" class="key hold glyph mdi:apple-keyboard-control"/>
</g>
<g transform="translate(1017, 137) rotate(10.5)" class="key keypos-18">
<rect rx="4" ry="4" x="-38" y="-38" width="77" height="77" class="key"/>
<text x="0" y="0" class="key tap">L</text>
<use href="#mdi:apple-keyboard-option" xlink:href="#mdi:apple-keyboard-option" x="-8" y="18" height="16" width="16.0" class="key hold glyph mdi:apple-keyboard-option"/>
</g>
<g transform="translate(1105, 175) rotate(17.5)" class="key keypos-19">
<rect rx="4" ry="4" x="-38" y="-38" width="77" height="77" class="key"/>
<text x="0" y="0" class="key tap">~</text>
<use href="#mdi:apple-keyboard-command" xlink:href="#mdi:apple-keyboard-command" x="-8" y="18" height="16" width="16.0" class="key hold glyph mdi:apple-keyboard-command"/>
</g>
<g transform="translate(50, 281) rotate(-18.0)" class="key keypos-20">
<rect rx="4" ry="4" x="-38" y="-38" width="77" height="77" class="key"/>
<text x="0" y="0" class="key tap">Z</text>
</g>
<g transform="translate(140, 236) rotate(-11.0)" class="key keypos-21">
<rect rx="4" ry="4" x="-38" y="-38" width="77" height="77" class="key"/>
<text x="0" y="0" class="key tap">X</text>
</g>
<g transform="translate(233, 214) rotate(-3.0)" class="key keypos-22">
<rect rx="4" ry="4" x="-38" y="-38" width="77" height="77" class="key"/>
<text x="0" y="0" class="key tap">C</text>
</g>
<g transform="translate(326, 238) rotate(8.0)" class="key keypos-23">
<rect rx="4" ry="4" x="-38" y="-38" width="77" height="77" class="key"/>
<text x="0" y="0" class="key tap">V</text>
</g>
<g transform="translate(417, 275) rotate(18.0)" class="key keypos-24">
<rect rx="4" ry="4" x="-38" y="-38" width="77" height="77" class="key"/>
<text x="0" y="0" class="key tap">B</text>
</g>
<g transform="translate(750, 275) rotate(-18.0)" class="key keypos-25">
<rect rx="4" ry="4" x="-38" y="-38" width="77" height="77" class="key"/>
<text x="0" y="0" class="key tap">N</text>
</g>
<g transform="translate(841, 238) rotate(-8.0)" class="key keypos-26">
<rect rx="4" ry="4" x="-38" y="-38" width="77" height="77" class="key"/>
<text x="0" y="0" class="key tap">M</text>
</g>
<g transform="translate(934, 214) rotate(3.0)" class="key keypos-27">
<rect rx="4" ry="4" x="-38" y="-38" width="77" height="77" class="key"/>
<text x="0" y="0" class="key tap">&amp;</text>
</g>
<g transform="translate(1026, 236) rotate(11.0)" class="key keypos-28">
<rect rx="4" ry="4" x="-38" y="-38" width="77" height="77" class="key"/>
<text x="0" y="0" class="key tap">[</text>
</g>
<g transform="translate(1116, 281) rotate(18.0)" class="key keypos-29">
<rect rx="4" ry="4" x="-38" y="-38" width="77" height="77" class="key"/>
<text x="0" y="0" class="key tap">]</text>
</g>
<g transform="translate(284, 393) rotate(-5.0)" class="key keypos-30">
<rect rx="4" ry="4" x="-38" y="-38" width="77" height="77" class="key"/>
<use href="#mdi:apple-keyboard-command" xlink:href="#mdi:apple-keyboard-command" x="-11" y="-11" height="22" width="22.0" class="key tap glyph mdi:apple-keyboard-command"/>
</g>
<g transform="translate(381, 369) rotate(8.5)" class="key keypos-31">
<rect rx="4" ry="4" x="-38" y="-38" width="77" height="77" class="key"/>
<use href="#mdi:keyboard-space" xlink:href="#mdi:keyboard-space" x="-11" y="-11" height="22" width="22.0" class="key tap glyph mdi:keyboard-space"/>
<use href="#mdi:apple-keyboard-shift" xlink:href="#mdi:apple-keyboard-shift" x="-8" y="18" height="16" width="16.0" class="key hold glyph mdi:apple-keyboard-shift"/>
</g>
<g transform="translate(479, 399) rotate(16.0)" class="key none keypos-32">
<rect rx="4" ry="4" x="-38" y="-38" width="77" height="77" class="key none"/>
<use href="#mdi:minus-circle-outline" xlink:href="#mdi:minus-circle-outline" x="-11" y="-11" height="22" width="22.0" class="key none tap glyph mdi:minus-circle-outline"/>
</g>
<g transform="translate(697, 410) rotate(-16.0)" class="key none keypos-33">
<rect rx="4" ry="4" x="-38" y="-38" width="77" height="77" class="key none"/>
<use href="#mdi:minus-circle-outline" xlink:href="#mdi:minus-circle-outline" x="-11" y="-11" height="22" width="22.0" class="key none tap glyph mdi:minus-circle-outline"/>
</g>
<g transform="translate(794, 374) rotate(-8.5)" class="key backspace keypos-34">
<rect rx="4" ry="4" x="-38" y="-38" width="77" height="77" class="key backspace"/>
<use href="#mdi:backspace" xlink:href="#mdi:backspace" x="-11" y="-11" height="22" width="22.0" class="key backspace tap glyph mdi:backspace"/>
</g>
<g transform="translate(891, 389) rotate(5.0)" class="key none keypos-35">
<rect rx="4" ry="4" x="-38" y="-38" width="77" height="77" class="key none"/>
<use href="#mdi:minus-circle-outline" xlink:href="#mdi:minus-circle-outline" x="-11" y="-11" height="22" width="22.0" class="key none tap glyph mdi:minus-circle-outline"/>
</g>
</g>
</g>
</svg>
